<?xml version="1.0" encoding="utf-8"?>
<!-- Generator: Adobe Illustrator 25.2.3, SVG Export Plug-In . SVG Version: 6.00 Build 0)  -->
<svg version="1.1" id="Layer_1" xmlns="http://www.w3.org/2000/svg" xmlns:xlink="http://www.w3.org/1999/xlink" x="0px" y="0px"
	 viewBox="0 0 346.9 97.7" style="enable-background:new 0 0 346.9 97.7;" xml:space="preserve">
<style type="text/css">
	.st0{enable-background:new    ;}
	.st1{fill:#FFFFFF;}
</style>
<g class="st0">
	<path class="st1" d="M20.1,39.5c-9.2,0-17.2-6-17.2-17.1s8.1-17,17.3-17c8.8,0,12.6,4.6,13.6,5.8l-5.1,4.5c-1.4-1.5-4-3.8-8.5-3.8
		c-5.3,0-9.5,3.9-9.5,10.6S14.9,33,20.3,33c5.4,0,6.9-2.1,6.9-2.1V26h-7v-5.9h14.5v13.7C33.1,35.3,29.2,39.5,20.1,39.5z"/>
	<path class="st1" d="M62.9,29H46c0.3,3.4,2.9,4.9,6,4.9c3.1,0,5.8-1.3,7.1-2.3l3,4c-0.8,0.6-3.9,3.8-11.2,3.8
		c-7.3,0-12.6-4.5-12.6-12.3c0-7.8,5.8-12.3,12.8-12.3c7,0,11.9,4.7,11.9,11.6C63,27.6,62.9,29,62.9,29z M51,19.9
		c-3.2,0-4.8,2.5-4.9,4.8h9.7C55.8,22.5,54.2,19.9,51,19.9z"/>
	<path class="st1" d="M75.4,21.2v8.5c0,2.1,0.1,3.5,2.5,3.5c1.2,0,2.3-0.4,2.3-0.4l0.4,6c-0.6,0.1-2.7,0.8-5.5,0.8
		c-6.1,0-7.4-3.7-7.4-9.2v-9.2h-3.4v-5.8h3.4V8.9h7.7v6.4h5.2v5.8H75.4z"/>
	<path class="st1" d="M109.5,39.5c-9.8,0-17.6-6.4-17.6-17.1s7.7-17.1,17.6-17.1s17.6,6.4,17.6,17.1S119.4,39.5,109.5,39.5z
		 M109.5,11.9c-5.5,0-9.7,4-9.7,10.3c0,6.3,4.2,10.4,9.7,10.4s9.7-4,9.7-10.4C119.2,16,115.1,11.9,109.5,11.9z"/>
	<path class="st1" d="M147.3,39l0-2.7c-1,1.4-3.5,3.2-6.9,3.2c-6.5,0-8.5-4-8.5-9.9V15.3h7.7v13.2c0,2.7,0.8,4.6,3.5,4.6
		c2.7,0,4-2.2,4-5.3V15.3h7.7V39H147.3z"/>
	<path class="st1" d="M168.6,21.2v8.5c0,2.1,0.1,3.5,2.5,3.5c1.2,0,2.3-0.4,2.3-0.4l0.4,6c-0.6,0.1-2.7,0.8-5.5,0.8
		c-6.1,0-7.4-3.7-7.4-9.2v-9.2h-3.4v-5.8h3.4V8.9h7.7v6.4h5.2v5.8H168.6z"/>
	<path class="st1" d="M198.1,39.5c-7.5,0-13.2-4.7-13.2-12.3s5.7-12.3,13.2-12.3c7.5,0,13.1,4.7,13.1,12.3S205.6,39.5,198.1,39.5z
		 M198.1,20.9c-3.4,0-5.4,2.6-5.4,6.1c0,3.5,2,6.1,5.4,6.1c3.4,0,5.4-2.6,5.4-6.1C203.5,23.6,201.5,20.9,198.1,20.9z"/>
	<path class="st1" d="M229.4,11.2c0,0-1.5-0.4-2.8-0.4c-2.3,0-2.8,1.3-2.8,3.1v1.5h5.1v5.8h-5.1V39H216V21.2h-3v-5.8h3v-1.3
		c0-5.7,2.7-8.8,8.5-8.8c3,0,5.2,0.6,5.2,0.6L229.4,11.2z"/>
	<path class="st1" d="M251.7,39h-11.2V5.8h11.2c10.4,0,18.1,5.5,18.1,16.6C269.9,33.5,262.2,39,251.7,39z M252.1,12.3h-3.9v20.1h3.9
		c6.1,0,9.8-3.8,9.8-10C262,16.2,258.4,12.3,252.1,12.3z"/>
	<path class="st1" d="M296.9,29H280c0.3,3.4,2.9,4.9,6,4.9c3.1,0,5.8-1.3,7.1-2.3l3,4c-0.8,0.6-3.9,3.8-11.2,3.8
		c-7.3,0-12.6-4.5-12.6-12.3c0-7.8,5.8-12.3,12.8-12.3c7,0,11.9,4.7,11.9,11.6C297,27.6,296.9,29,296.9,29z M285,19.9
		c-3.2,0-4.8,2.5-4.9,4.8h9.7C289.8,22.5,288.2,19.9,285,19.9z"/>
	<path class="st1" d="M315.8,39.5c-3.2,0-6-1.2-7.8-3.6h0l0,3.1h-7.3V5.8h7.7v8c0,2.2-0.1,4.4-0.1,4.4h0.1c1-1.4,3.4-3.3,7.4-3.3
		c6.8,0,11.1,5.3,11.1,12.3C327,34.1,322.7,39.5,315.8,39.5z M313.7,20.9c-3.3,0-5.6,2.5-5.6,6.1s2.3,6.1,5.6,6.1s5.5-2.5,5.5-6.1
		S317,20.9,313.7,20.9z"/>
	<path class="st1" d="M339.6,21.2v8.5c0,2.1,0.1,3.5,2.5,3.5c1.2,0,2.3-0.4,2.3-0.4l0.4,6c-0.6,0.1-2.7,0.8-5.5,0.8
		c-6.1,0-7.4-3.7-7.4-9.2v-9.2h-3.4v-5.8h3.4V8.9h7.7v6.4h5.2v5.8H339.6z"/>
</g>
<g class="st0">
	<path class="st1" d="M18.4,64.2c0,0-1.5-0.4-2.8-0.4c-2.3,0-2.8,1.3-2.8,3.1v1.5h5.1v5.8h-5.1V92H5V74.2H2v-5.8h3v-1.3
		c0-5.7,2.7-8.8,8.5-8.8c3,0,5.2,0.6,5.2,0.6L18.4,64.2z"/>
	<path class="st1" d="M31.3,92.5c-7.5,0-13.2-4.7-13.2-12.3s5.7-12.3,13.2-12.3s13.1,4.7,13.1,12.3S38.7,92.5,31.3,92.5z M31.3,73.9
		c-3.4,0-5.4,2.6-5.4,6.1c0,3.5,2,6.1,5.4,6.1c3.4,0,5.4-2.6,5.4-6.1C36.6,76.6,34.6,73.9,31.3,73.9z"/>
	<path class="st1" d="M63.7,75.4h-0.3c-0.4-0.2-1.4-0.6-2.8-0.6c-3.8,0-4.8,3.6-4.8,6.7V92h-7.7V68.3h7.7l0,3.4h0.1
		c1.3-2.6,3.3-3.8,5.9-3.8c1.6,0,2.4,0.4,2.4,0.4L63.7,75.4z"/>
	<path class="st1" d="M92.2,92.5c-9.2,0-17.2-6-17.2-17.1s8.1-17,17.3-17c8.8,0,12.6,4.6,13.6,5.8l-5.1,4.5c-1.4-1.5-4-3.8-8.5-3.8
		c-5.3,0-9.5,3.9-9.5,10.6S87,86,92.4,86c5.4,0,6.9-2.1,6.9-2.1V79h-7v-5.9h14.5v13.7C105.2,88.3,101.3,92.5,92.2,92.5z"/>
	<path class="st1" d="M123.6,92.5c-7.5,0-13.2-4.7-13.2-12.3s5.7-12.3,13.2-12.3s13.1,4.7,13.1,12.3S131.1,92.5,123.6,92.5z
		 M123.6,73.9c-3.4,0-5.4,2.6-5.4,6.1c0,3.5,2,6.1,5.4,6.1c3.4,0,5.4-2.6,5.4-6.1C129,76.6,127,73.9,123.6,73.9z"/>
	<path class="st1" d="M152.2,92.5c-7.5,0-13.2-4.7-13.2-12.3s5.7-12.3,13.2-12.3s13.1,4.7,13.1,12.3S159.7,92.5,152.2,92.5z
		 M152.2,73.9c-3.4,0-5.4,2.6-5.4,6.1c0,3.5,2,6.1,5.4,6.1c3.4,0,5.4-2.6,5.4-6.1C157.6,76.6,155.6,73.9,152.2,73.9z"/>
	<path class="st1" d="M186.7,92l0-3.1l-0.1,0c-1.8,2.4-4.6,3.6-7.8,3.6c-6.9,0-11.2-5.4-11.2-12.3c0-7,4.3-12.3,11.2-12.3
		c4.3,0,6.7,2.2,7.5,3.3V58.8h7.7V92H186.7z M181.1,73.9c-3.3,0-5.6,2.5-5.6,6.1s2.3,6.1,5.6,6.1c3.3,0,5.5-2.5,5.5-6.1
		S184.4,73.9,181.1,73.9z"/>
</g>
</svg>
